<?xml version="1.0" encoding="UTF-8" standalone="no"?>
<!-- Created with Inkscape (http://www.inkscape.org/) -->

<svg
   width="1000"
   height="1000"
   viewBox="0 0 264.58333 264.58334"
   version="1.1"
   id="svg5"
   xmlns:xlink="http://www.w3.org/1999/xlink"
   xmlns="http://www.w3.org/2000/svg"
   xmlns:svg="http://www.w3.org/2000/svg">
  <defs
     id="defs2">
    <linearGradient
       id="linearGradient49163">
      <stop
         style="stop-color:#0060ff;stop-opacity:1;"
         offset="0"
         id="stop49159" />
      <stop
         style="stop-color:#00c850;stop-opacity:1"
         offset="1"
         id="stop49161" />
    </linearGradient>
    <linearGradient
       id="linearGradient48717">
      <stop
         style="stop-color:#0060ff;stop-opacity:1;"
         offset="0"
         id="stop48713" />
      <stop
         style="stop-color:#0060ff;stop-opacity:0;"
         offset="1"
         id="stop48715" />
    </linearGradient>
    <linearGradient
       id="linearGradient48709">
      <stop
         style="stop-color:#0060ff;stop-opacity:1;"
         offset="0"
         id="stop48707" />
    </linearGradient>
    <linearGradient
       xlink:href="#linearGradient48717"
       id="linearGradient48454"
       x1="166.55521"
       y1="217.22292"
       x2="257.83645"
       y2="217.22292"
       gradientUnits="userSpaceOnUse" />
    <linearGradient
       xlink:href="#linearGradient48717"
       id="linearGradient48456"
       x1="44.525093"
       y1="135.49207"
       x2="262.00207"
       y2="135.49207"
       gradientUnits="userSpaceOnUse" />
    <linearGradient
       xlink:href="#linearGradient48717"
       id="linearGradient48458"
       x1="27.627455"
       y1="147.46919"
       x2="225.60725"
       y2="147.46919"
       gradientUnits="userSpaceOnUse" />
    <linearGradient
       xlink:href="#linearGradient49163"
       id="linearGradient48719"
       gradientUnits="userSpaceOnUse"
       x1="2.3462126"
       y1="130.688"
       x2="259.84052"
       y2="130.688" />
  </defs>
  <g
     id="layer1">
    <path
       style="fill:url(#linearGradient48719);fill-opacity:1;stroke:none;stroke-width:0.264583;stroke-linecap:butt;stroke-linejoin:miter;stroke-miterlimit:4;stroke-dasharray:none;stroke-opacity:1;opacity:1"
       d="M 2.4784422,256.93184 C 6.1961038,135.48817 86.332402,96.246171 86.332402,96.246171 c 0,0 14.870658,-45.438105 45.438108,-64.852571 30.56746,-19.414463 128.05285,-26.8497893 128.05285,-26.8497893 0,0 -97.89846,12.8052843 -120.61752,33.4589683 -22.71905,20.653687 -39.242003,66.504861 -39.242003,66.504861 0,0 -39.655077,23.95829 -59.482613,52.0473 -19.827539,28.08901 -38.0027818,100.3769 -38.0027818,100.3769 z"
       id="path145" />
    <path
       style="fill:url(#linearGradient48458);fill-opacity:1;stroke:none;stroke-width:0.264583px;stroke-linecap:butt;stroke-linejoin:miter;stroke-opacity:1;opacity:1"
       d="M 70.635605,259.82336 C -82.974448,182.00016 225.53824,35.111266 225.53824,35.111266 c 0,0 -79.72322,48.742696 -109.46452,75.592494 -27.231511,24.584 -88.810855,61.96105 -81.375529,99.96383 7.435328,38.00278 35.937414,49.15577 35.937414,49.15577 z"
       id="path6589" />
    <path
       style="fill:url(#linearGradient48456);stroke:none;stroke-width:0.264583px;stroke-linecap:butt;stroke-linejoin:miter;stroke-opacity:1;fill-opacity:1;opacity:1"
       d="M 225.53824,48.742697 C 127.63978,116.89986 44.611961,189.18776 44.611961,189.18776 c 0,0 43.372738,-26.84979 52.460361,-28.50209 9.087618,-1.65229 72.700968,-11.56606 63.200278,4.54381 -9.5007,16.10988 -56.17802,57.00417 -56.17802,57.00417 0,0 71.04867,-38.41585 101.61613,-66.50486 30.56745,-28.08901 56.17802,-70.635605 56.17802,-70.635605 0,0 -58.24339,56.178025 -77.65786,57.830315 -19.41446,1.6523 -60.72183,4.54381 -49.15577,-5.36996 11.56607,-9.91376 90.46314,-88.810843 90.46314,-88.810843 z"
       id="path25604" />
    <circle
       style="fill:url(#linearGradient48454);fill-opacity:1;stroke:none;stroke-width:0.264583;stroke-miterlimit:4;stroke-dasharray:none;stroke-opacity:1;opacity:1"
       id="path48221"
       cx="212.19583"
       cy="217.22292"
       r="45.508331" />
  </g>
</svg>
